# xmcd
#
# Track frame offsets: 
#        150
#        18486
#        35140
#        52523
#        68271
#        84308
#        104124
#        119197
#        138553
#        154596
#        175603
#        195437
#        214452
#        233813
#
# Disc length: 3381 seconds
#
# Revision: 0
# Processed by: cddbd v1.5.2PL0 Copyright (c) Steve Scherf et al.
# Submitted via: ExactAudioCopy v1.3
#
DISCID=bc0d330e
DTITLE=Secret Garden - StoryTeller
DYEAR=2019
DGENRE=Classical
TTITLE0=The Pilot
TTITLE1=Beyond The Blue
TTITLE2=Beautiful - Brian Kennedy
TTITLE3=Flow
TTITLE4=Song To a Child
TTITLE5=Nostalgia
TTITLE6=Open Doors
TTITLE7=Sunshine - CathrineIversen
TTITLE8=One More Chance
TTITLE9=Fantasia
TTITLE10=The Voyage
TTITLE11=Strength - Espen Grjotheim
TTITLE12=End of a Journey
TTITLE13=Sunshine - Alison Lau
EXTD=
EXTT0=
EXTT1=
EXTT2=
EXTT3=
EXTT4=
EXTT5=
EXTT6=
EXTT7=
EXTT8=
EXTT9=
EXTT10=
EXTT11=
EXTT12=
EXTT13=
PLAYORDER=
